<?xml version="1.0" standalone="no"?>
<!DOCTYPE svg PUBLIC "-//W3C//DTD SVG 1.1//EN" "http://www.w3.org/Graphics/SVG/1.1/DTD/svg11.dtd">
<svg version="1.1" width="1200" height="470" onload="init(evt)" viewBox="0 0 1200 470" xmlns="http://www.w3.org/2000/svg" xmlns:xlink="http://www.w3.org/1999/xlink">
<!-- Flame graph stack visualization. See https://github.com/brendangregg/FlameGraph for latest version, and http://www.brendangregg.com/flamegraphs.html for examples. -->
<!-- NOTES:  -->
<defs>
	<linearGradient id="background" y1="0" y2="1" x1="0" x2="0" >
		<stop stop-color="#eeeeee" offset="5%" />
		<stop stop-color="#eeeeb0" offset="95%" />
	</linearGradient>
</defs>
<style type="text/css">
	text { font-family:Verdana; font-size:12px; fill:rgb(0,0,0); }
	#search, #ignorecase { opacity:0.1; cursor:pointer; }
	#search:hover, #search.show, #ignorecase:hover, #ignorecase.show { opacity:1; }
	#subtitle { text-anchor:middle; font-color:rgb(160,160,160); }
	#title { text-anchor:middle; font-size:17px}
	#unzoom { cursor:pointer; }
	#frames > *:hover { stroke:black; stroke-width:0.5; cursor:pointer; }
	.hide { display:none; }
	.parent { opacity:0.5; }
</style>
<script type="text/ecmascript">
<![CDATA[
	"use strict";
	var details, searchbtn, unzoombtn, matchedtxt, svg, searching, currentSearchTerm, ignorecase, ignorecaseBtn;
	function init(evt) {
		details = document.getElementById("details").firstChild;
		searchbtn = document.getElementById("search");
		ignorecaseBtn = document.getElementById("ignorecase");
		unzoombtn = document.getElementById("unzoom");
		matchedtxt = document.getElementById("matched");
		svg = document.getElementsByTagName("svg")[0];
		searching = 0;
		currentSearchTerm = null;
	}

	window.addEventListener("click", function(e) {
		var target = find_group(e.target);
		if (target) {
			if (target.nodeName == "a") {
				if (e.ctrlKey === false) return;
				e.preventDefault();
			}
			if (target.classList.contains("parent")) unzoom();
			zoom(target);
		}
		else if (e.target.id == "unzoom") unzoom();
		else if (e.target.id == "search") search_prompt();
		else if (e.target.id == "ignorecase") toggle_ignorecase();
	}, false)

	// mouse-over for info
	// show
	window.addEventListener("mouseover", function(e) {
		var target = find_group(e.target);
		if (target) details.nodeValue = "Function: " + g_to_text(target);
	}, false)

	// clear
	window.addEventListener("mouseout", function(e) {
		var target = find_group(e.target);
		if (target) details.nodeValue = ' ';
	}, false)

	// ctrl-F for search
	window.addEventListener("keydown",function (e) {
		if (e.keyCode === 114 || (e.ctrlKey && e.keyCode === 70)) {
			e.preventDefault();
			search_prompt();
		}
	}, false)

	// ctrl-I to toggle case-sensitive search
	window.addEventListener("keydown",function (e) {
		if (e.ctrlKey && e.keyCode === 73) {
			e.preventDefault();
			toggle_ignorecase();
		}
	}, false)

	// functions
	function find_child(node, selector) {
		var children = node.querySelectorAll(selector);
		if (children.length) return children[0];
		return;
	}
	function find_group(node) {
		var parent = node.parentElement;
		if (!parent) return;
		if (parent.id == "frames") return node;
		return find_group(parent);
	}
	function orig_save(e, attr, val) {
		if (e.attributes["_orig_" + attr] != undefined) return;
		if (e.attributes[attr] == undefined) return;
		if (val == undefined) val = e.attributes[attr].value;
		e.setAttribute("_orig_" + attr, val);
	}
	function orig_load(e, attr) {
		if (e.attributes["_orig_"+attr] == undefined) return;
		e.attributes[attr].value = e.attributes["_orig_" + attr].value;
		e.removeAttribute("_orig_"+attr);
	}
	function g_to_text(e) {
		var text = find_child(e, "title").firstChild.nodeValue;
		return (text)
	}
	function g_to_func(e) {
		var func = g_to_text(e);
		// if there's any manipulation we want to do to the function
		// name before it's searched, do it here before returning.
		return (func);
	}
	function update_text(e) {
		var r = find_child(e, "rect");
		var t = find_child(e, "text");
		var w = parseFloat(r.attributes.width.value) -3;
		var txt = find_child(e, "title").textContent.replace(/\([^(]*\)$/,"");
		t.attributes.x.value = parseFloat(r.attributes.x.value) + 3;

		// Smaller than this size won't fit anything
		if (w < 2 * 12 * 0.59) {
			t.textContent = "";
			return;
		}

		t.textContent = txt;
		// Fit in full text width
		if (/^ *$/.test(txt) || t.getSubStringLength(0, txt.length) < w)
			return;

		for (var x = txt.length - 2; x > 0; x--) {
			if (t.getSubStringLength(0, x + 2) <= w) {
				t.textContent = txt.substring(0, x) + "..";
				return;
			}
		}
		t.textContent = "";
	}

	// zoom
	function zoom_reset(e) {
		if (e.attributes != undefined) {
			orig_load(e, "x");
			orig_load(e, "width");
		}
		if (e.childNodes == undefined) return;
		for (var i = 0, c = e.childNodes; i < c.length; i++) {
			zoom_reset(c[i]);
		}
	}
	function zoom_child(e, x, ratio) {
		if (e.attributes != undefined) {
			if (e.attributes.x != undefined) {
				orig_save(e, "x");
				e.attributes.x.value = (parseFloat(e.attributes.x.value) - x - 10) * ratio + 10;
				if (e.tagName == "text")
					e.attributes.x.value = find_child(e.parentNode, "rect[x]").attributes.x.value + 3;
			}
			if (e.attributes.width != undefined) {
				orig_save(e, "width");
				e.attributes.width.value = parseFloat(e.attributes.width.value) * ratio;
			}
		}

		if (e.childNodes == undefined) return;
		for (var i = 0, c = e.childNodes; i < c.length; i++) {
			zoom_child(c[i], x - 10, ratio);
		}
	}
	function zoom_parent(e) {
		if (e.attributes) {
			if (e.attributes.x != undefined) {
				orig_save(e, "x");
				e.attributes.x.value = 10;
			}
			if (e.attributes.width != undefined) {
				orig_save(e, "width");
				e.attributes.width.value = parseInt(svg.width.baseVal.value) - (10 * 2);
			}
		}
		if (e.childNodes == undefined) return;
		for (var i = 0, c = e.childNodes; i < c.length; i++) {
			zoom_parent(c[i]);
		}
	}
	function zoom(node) {
		var attr = find_child(node, "rect").attributes;
		var width = parseFloat(attr.width.value);
		var xmin = parseFloat(attr.x.value);
		var xmax = parseFloat(xmin + width);
		var ymin = parseFloat(attr.y.value);
		var ratio = (svg.width.baseVal.value - 2 * 10) / width;

		// XXX: Workaround for JavaScript float issues (fix me)
		var fudge = 0.0001;

		unzoombtn.classList.remove("hide");

		var el = document.getElementById("frames").children;
		for (var i = 0; i < el.length; i++) {
			var e = el[i];
			var a = find_child(e, "rect").attributes;
			var ex = parseFloat(a.x.value);
			var ew = parseFloat(a.width.value);
			var upstack;
			// Is it an ancestor
			if (0 == 0) {
				upstack = parseFloat(a.y.value) > ymin;
			} else {
				upstack = parseFloat(a.y.value) < ymin;
			}
			if (upstack) {
				// Direct ancestor
				if (ex <= xmin && (ex+ew+fudge) >= xmax) {
					e.classList.add("parent");
					zoom_parent(e);
					update_text(e);
				}
				// not in current path
				else
					e.classList.add("hide");
			}
			// Children maybe
			else {
				// no common path
				if (ex < xmin || ex + fudge >= xmax) {
					e.classList.add("hide");
				}
				else {
					zoom_child(e, xmin, ratio);
					update_text(e);
				}
			}
		}
		search();
	}
	function unzoom() {
		unzoombtn.classList.add("hide");
		var el = document.getElementById("frames").children;
		for(var i = 0; i < el.length; i++) {
			el[i].classList.remove("parent");
			el[i].classList.remove("hide");
			zoom_reset(el[i]);
			update_text(el[i]);
		}
		search();
	}

	// search
	function toggle_ignorecase() {
		ignorecase = !ignorecase;
		if (ignorecase) {
			ignorecaseBtn.classList.add("show");
		} else {
			ignorecaseBtn.classList.remove("show");
		}
		reset_search();
		search();
	}
	function reset_search() {
		var el = document.querySelectorAll("#frames rect");
		for (var i = 0; i < el.length; i++) {
			orig_load(el[i], "fill")
		}
	}
	function search_prompt() {
		if (!searching) {
			var term = prompt("Enter a search term (regexp " +
			    "allowed, eg: ^ext4_)"
			    + (ignorecase ? ", ignoring case" : "")
			    + "\nPress Ctrl-i to toggle case sensitivity", "");
			if (term != null) {
				currentSearchTerm = term;
				search();
			}
		} else {
			reset_search();
			searching = 0;
			currentSearchTerm = null;
			searchbtn.classList.remove("show");
			searchbtn.firstChild.nodeValue = "Search"
			matchedtxt.classList.add("hide");
			matchedtxt.firstChild.nodeValue = ""
		}
	}
	function search(term) {
		if (currentSearchTerm === null) return;
		var term = currentSearchTerm;

		var re = new RegExp(term, ignorecase ? 'i' : '');
		var el = document.getElementById("frames").children;
		var matches = new Object();
		var maxwidth = 0;
		for (var i = 0; i < el.length; i++) {
			var e = el[i];
			var func = g_to_func(e);
			var rect = find_child(e, "rect");
			if (func == null || rect == null)
				continue;

			// Save max width. Only works as we have a root frame
			var w = parseFloat(rect.attributes.width.value);
			if (w > maxwidth)
				maxwidth = w;

			if (func.match(re)) {
				// highlight
				var x = parseFloat(rect.attributes.x.value);
				orig_save(rect, "fill");
				rect.attributes.fill.value = "rgb(230,0,230)";

				// remember matches
				if (matches[x] == undefined) {
					matches[x] = w;
				} else {
					if (w > matches[x]) {
						// overwrite with parent
						matches[x] = w;
					}
				}
				searching = 1;
			}
		}
		if (!searching)
			return;

		searchbtn.classList.add("show");
		searchbtn.firstChild.nodeValue = "Reset Search";

		// calculate percent matched, excluding vertical overlap
		var count = 0;
		var lastx = -1;
		var lastw = 0;
		var keys = Array();
		for (k in matches) {
			if (matches.hasOwnProperty(k))
				keys.push(k);
		}
		// sort the matched frames by their x location
		// ascending, then width descending
		keys.sort(function(a, b){
			return a - b;
		});
		// Step through frames saving only the biggest bottom-up frames
		// thanks to the sort order. This relies on the tree property
		// where children are always smaller than their parents.
		var fudge = 0.0001;	// JavaScript floating point
		for (var k in keys) {
			var x = parseFloat(keys[k]);
			var w = matches[keys[k]];
			if (x >= lastx + lastw - fudge) {
				count += w;
				lastx = x;
				lastw = w;
			}
		}
		// display matched percent
		matchedtxt.classList.remove("hide");
		var pct = 100 * count / maxwidth;
		if (pct != 100) pct = pct.toFixed(1)
		matchedtxt.firstChild.nodeValue = "Matched: " + pct + "%";
	}
]]>
</script>
<rect x="0.0" y="0" width="1200.0" height="470.0" fill="url(#background)"  />
<text id="title" x="600.00" y="24" >Flame Graph</text>
<text id="details" x="10.00" y="453" > </text>
<text id="unzoom" x="10.00" y="24" class="hide">Reset Zoom</text>
<text id="search" x="1090.00" y="24" >Search</text>
<text id="ignorecase" x="1174.00" y="24" >ic</text>
<text id="matched" x="1090.00" y="453" > </text>
<g id="frames">
<g >
<title>SingleThreadedPageRankComputer::computeForNetwork (59 samples, 92.19%)</title><rect x="102.2" y="373" width="1087.8" height="15.0" fill="rgb(217,87,43)" rx="2" ry="2" />
<text  x="105.19" y="383.5" >SingleThreadedPageRankComputer::computeForNetwork</text>
</g>
<g >
<title>std::hash&lt;std::__cxx11::basic_string&lt;char, (1 samples, 1.56%)</title><rect x="1042.5" y="293" width="18.4" height="15.0" fill="rgb(234,19,30)" rx="2" ry="2" />
<text  x="1045.50" y="303.5" ></text>
</g>
<g >
<title>std::_Hash_bytes(voidconst*, (1 samples, 1.56%)</title><rect x="1097.8" y="261" width="18.4" height="15.0" fill="rgb(217,162,32)" rx="2" ry="2" />
<text  x="1100.81" y="271.5" ></text>
</g>
<g >
<title>std::_Destroy_aux&lt;false&gt;::__destroy&lt;PageId*&gt; (1 samples, 1.56%)</title><rect x="1060.9" y="181" width="18.5" height="15.0" fill="rgb(217,13,44)" rx="2" ry="2" />
<text  x="1063.94" y="191.5" ></text>
</g>
<g >
<title>arch_fork (1 samples, 1.56%)</title><rect x="157.5" y="309" width="18.4" height="15.0" fill="rgb(223,158,40)" rx="2" ry="2" />
<text  x="160.50" y="319.5" ></text>
</g>
<g >
<title>std::_Vector_base&lt;PageId, (1 samples, 1.56%)</title><rect x="1079.4" y="213" width="18.4" height="15.0" fill="rgb(219,32,45)" rx="2" ry="2" />
<text  x="1082.38" y="223.5" ></text>
</g>
<g >
<title>Sha256IdGenerator::generateId(content=..., (35 samples, 54.69%)</title><rect x="194.4" y="341" width="645.3" height="15.0" fill="rgb(225,221,38)" rx="2" ry="2" />
<text  x="197.38" y="351.5" >Sha256IdGenerator::generateId(content=...,</text>
</g>
<g >
<title>Sha256IdGenerator::generateId(content=&quot;New (1 samples, 1.56%)</title><rect x="139.1" y="341" width="18.4" height="15.0" fill="rgb(232,210,13)" rx="2" ry="2" />
<text  x="142.06" y="351.5" ></text>
</g>
<g >
<title>Sha256IdGenerator::generateId(content=&quot;Dirty (1 samples, 1.56%)</title><rect x="102.2" y="341" width="18.4" height="15.0" fill="rgb(239,125,10)" rx="2" ry="2" />
<text  x="105.19" y="351.5" ></text>
</g>
<g >
<title>std::__cxx11::basic_string&lt;char, (9 samples, 14.06%)</title><rect x="839.7" y="293" width="165.9" height="15.0" fill="rgb(211,95,44)" rx="2" ry="2" />
<text  x="842.69" y="303.5" >std::__cxx11::basic_s..</text>
</g>
<g >
<title>std::getline&lt;char,std::char_traits&lt;char&gt;, (5 samples, 7.81%)</title><rect x="10.0" y="373" width="92.2" height="15.0" fill="rgb(215,55,25)" rx="2" ry="2" />
<text  x="13.00" y="383.5" >std::getlin..</text>
</g>
<g >
<title>_int_malloc (1 samples, 1.56%)</title><rect x="1171.6" y="229" width="18.4" height="15.0" fill="rgb(211,42,53)" rx="2" ry="2" />
<text  x="1174.56" y="239.5" ></text>
</g>
<g >
<title>PageId::~PageId (1 samples, 1.56%)</title><rect x="1060.9" y="149" width="18.5" height="15.0" fill="rgb(226,159,50)" rx="2" ry="2" />
<text  x="1063.94" y="159.5" ></text>
</g>
<g >
<title>std::unordered_map&lt;PageId,double, (2 samples, 3.12%)</title><rect x="1024.1" y="357" width="36.8" height="15.0" fill="rgb(252,96,18)" rx="2" ry="2" />
<text  x="1027.06" y="367.5" >std..</text>
</g>
<g >
<title>std::vector&lt;PageId, (2 samples, 3.12%)</title><rect x="1060.9" y="229" width="36.9" height="15.0" fill="rgb(248,38,40)" rx="2" ry="2" />
<text  x="1063.94" y="239.5" >std..</text>
</g>
<g >
<title>std::__cxx11::basic_string&lt;char, (9 samples, 14.06%)</title><rect x="839.7" y="261" width="165.9" height="15.0" fill="rgb(245,133,24)" rx="2" ry="2" />
<text  x="842.69" y="271.5" >std::__cxx11::basic_s..</text>
</g>
<g >
<title>std::__detail::_Map_base&lt;PageId, (2 samples, 3.12%)</title><rect x="1024.1" y="341" width="36.8" height="15.0" fill="rgb(235,224,13)" rx="2" ry="2" />
<text  x="1027.06" y="351.5" >std..</text>
</g>
<g >
<title>operatornew(unsigned (1 samples, 1.56%)</title><rect x="1005.6" y="277" width="18.5" height="15.0" fill="rgb(237,34,41)" rx="2" ry="2" />
<text  x="1008.62" y="287.5" ></text>
</g>
<g >
<title>operatornew(unsigned (1 samples, 1.56%)</title><rect x="1171.6" y="261" width="18.4" height="15.0" fill="rgb(247,83,45)" rx="2" ry="2" />
<text  x="1174.56" y="271.5" ></text>
</g>
<g >
<title>std::allocator_traits&lt;std::allocator&lt;PageId&gt; (1 samples, 1.56%)</title><rect x="1171.6" y="293" width="18.4" height="15.0" fill="rgb(222,220,39)" rx="2" ry="2" />
<text  x="1174.56" y="303.5" ></text>
</g>
<g >
<title>std::__cxx11::basic_string&lt;char, (10 samples, 15.62%)</title><rect x="839.7" y="325" width="184.4" height="15.0" fill="rgb(223,148,50)" rx="2" ry="2" />
<text  x="842.69" y="335.5" >std::__cxx11::basic_stri..</text>
</g>
<g >
<title>std::_Hash_impl::hash(__seed=3339675911, (1 samples, 1.56%)</title><rect x="1153.1" y="277" width="18.5" height="15.0" fill="rgb(227,105,9)" rx="2" ry="2" />
<text  x="1156.12" y="287.5" ></text>
</g>
<g >
<title>std::_Hash_bytes(voidconst*, (1 samples, 1.56%)</title><rect x="1042.5" y="261" width="18.4" height="15.0" fill="rgb(208,107,33)" rx="2" ry="2" />
<text  x="1045.50" y="271.5" ></text>
</g>
<g >
<title>std::_Hashtable&lt;PageId,std::pair&lt;PageId (1 samples, 1.56%)</title><rect x="1024.1" y="309" width="18.4" height="15.0" fill="rgb(221,107,29)" rx="2" ry="2" />
<text  x="1027.06" y="319.5" ></text>
</g>
<g >
<title>__GI___libc_malloc(bytes=4096) (1 samples, 1.56%)</title><rect x="1171.6" y="245" width="18.4" height="15.0" fill="rgb(235,105,20)" rx="2" ry="2" />
<text  x="1174.56" y="255.5" ></text>
</g>
<g >
<title>std::__detail::_Hashtable_alloc&lt;std::allocator&lt;std::__detail::_Hash_node&lt;std::pair&lt;PageId (2 samples, 3.12%)</title><rect x="1060.9" y="309" width="36.9" height="15.0" fill="rgb(215,147,15)" rx="2" ry="2" />
<text  x="1063.94" y="319.5" >std..</text>
</g>
<g >
<title>std::_Vector_base&lt;PageId, (1 samples, 1.56%)</title><rect x="1079.4" y="197" width="18.4" height="15.0" fill="rgb(242,24,19)" rx="2" ry="2" />
<text  x="1082.38" y="207.5" ></text>
</g>
<g >
<title>_int_free(av=0x7fd86cf85c40 (1 samples, 1.56%)</title><rect x="1079.4" y="149" width="18.4" height="15.0" fill="rgb(213,87,34)" rx="2" ry="2" />
<text  x="1082.38" y="159.5" ></text>
</g>
<g >
<title>__libc_read(fd=5, (35 samples, 54.69%)</title><rect x="194.4" y="325" width="645.3" height="15.0" fill="rgb(244,103,17)" rx="2" ry="2" />
<text  x="197.38" y="335.5" >__libc_read(fd=5,</text>
</g>
<g >
<title>__gnu_cxx::new_allocator&lt;PageId&gt;::deallocate(this=0x56486393ca98, (1 samples, 1.56%)</title><rect x="1079.4" y="165" width="18.4" height="15.0" fill="rgb(214,166,53)" rx="2" ry="2" />
<text  x="1082.38" y="175.5" ></text>
</g>
<g >
<title>__libc_fork (1 samples, 1.56%)</title><rect x="157.5" y="325" width="18.4" height="15.0" fill="rgb(226,142,15)" rx="2" ry="2" />
<text  x="160.50" y="335.5" ></text>
</g>
<g >
<title>Page::generateId(idGenerator=..., (40 samples, 62.50%)</title><rect x="102.2" y="357" width="737.5" height="15.0" fill="rgb(253,105,43)" rx="2" ry="2" />
<text  x="105.19" y="367.5" >Page::generateId(idGenerator=...,</text>
</g>
<g >
<title>__memmove_avx_unaligned_erms (9 samples, 14.06%)</title><rect x="839.7" y="213" width="165.9" height="15.0" fill="rgb(241,135,20)" rx="2" ry="2" />
<text  x="842.69" y="223.5" >__memmove_avx_unalign..</text>
</g>
<g >
<title>__GI___libc_malloc (1 samples, 1.56%)</title><rect x="1005.6" y="261" width="18.5" height="15.0" fill="rgb(209,2,47)" rx="2" ry="2" />
<text  x="1008.62" y="271.5" ></text>
</g>
<g >
<title>std::vector&lt;PageId, (1 samples, 1.56%)</title><rect x="1171.6" y="325" width="18.4" height="15.0" fill="rgb(242,218,39)" rx="2" ry="2" />
<text  x="1174.56" y="335.5" ></text>
</g>
<g >
<title>std::vector&lt;PageId,std::allocator&lt;PageId&gt; (1 samples, 1.56%)</title><rect x="1171.6" y="341" width="18.4" height="15.0" fill="rgb(233,167,35)" rx="2" ry="2" />
<text  x="1174.56" y="351.5" ></text>
</g>
<g >
<title>StdinGenerator::generateNetworkOfSize (5 samples, 7.81%)</title><rect x="10.0" y="389" width="92.2" height="15.0" fill="rgb(253,62,19)" rx="2" ry="2" />
<text  x="13.00" y="399.5" >StdinGenera..</text>
</g>
<g >
<title>std::hash&lt;std::__cxx11::basic_string&lt;char, (1 samples, 1.56%)</title><rect x="1097.8" y="293" width="18.4" height="15.0" fill="rgb(247,164,52)" rx="2" ry="2" />
<text  x="1100.81" y="303.5" ></text>
</g>
<g >
<title>std::char_traits&lt;char&gt;::copy(__n=64, (9 samples, 14.06%)</title><rect x="839.7" y="229" width="165.9" height="15.0" fill="rgb(244,102,12)" rx="2" ry="2" />
<text  x="842.69" y="239.5" >std::char_traits&lt;char..</text>
</g>
<g >
<title>Sha256IdGenerator::generateId(content=&quot;Small (1 samples, 1.56%)</title><rect x="157.5" y="341" width="18.4" height="15.0" fill="rgb(249,209,23)" rx="2" ry="2" />
<text  x="160.50" y="351.5" ></text>
</g>
<g >
<title>std::hash&lt;std::__cxx11::basic_string&lt;char, (1 samples, 1.56%)</title><rect x="1153.1" y="293" width="18.5" height="15.0" fill="rgb(252,119,4)" rx="2" ry="2" />
<text  x="1156.12" y="303.5" ></text>
</g>
<g >
<title>__GI__IO_sputbackc (2 samples, 3.12%)</title><rect x="10.0" y="341" width="36.9" height="15.0" fill="rgb(248,79,8)" rx="2" ry="2" />
<text  x="13.00" y="351.5" >__G..</text>
</g>
<g >
<title>PageIdHash::operator() (1 samples, 1.56%)</title><rect x="1042.5" y="309" width="18.4" height="15.0" fill="rgb(213,45,0)" rx="2" ry="2" />
<text  x="1045.50" y="319.5" ></text>
</g>
<g >
<title>std::pair&lt;PageId (2 samples, 3.12%)</title><rect x="1060.9" y="245" width="36.9" height="15.0" fill="rgb(206,22,54)" rx="2" ry="2" />
<text  x="1063.94" y="255.5" >std..</text>
</g>
<g >
<title>std::_Hash_impl::hash(__seed=3339675911, (1 samples, 1.56%)</title><rect x="1042.5" y="277" width="18.4" height="15.0" fill="rgb(217,136,18)" rx="2" ry="2" />
<text  x="1045.50" y="287.5" ></text>
</g>
<g >
<title>pageRankComputationWithNetwork(computer=..., (59 samples, 92.19%)</title><rect x="102.2" y="389" width="1087.8" height="15.0" fill="rgb(233,14,48)" rx="2" ry="2" />
<text  x="105.19" y="399.5" >pageRankComputationWithNetwork(computer=...,</text>
</g>
<g >
<title>Sha256IdGenerator::generateId(content=&quot;Young (1 samples, 1.56%)</title><rect x="175.9" y="341" width="18.5" height="15.0" fill="rgb(237,134,27)" rx="2" ry="2" />
<text  x="178.94" y="351.5" ></text>
</g>
<g >
<title>arch_fork (1 samples, 1.56%)</title><rect x="102.2" y="309" width="18.4" height="15.0" fill="rgb(206,172,38)" rx="2" ry="2" />
<text  x="105.19" y="319.5" ></text>
</g>
<g >
<title>std::__cxx11::basic_string&lt;char, (1 samples, 1.56%)</title><rect x="1060.9" y="133" width="18.5" height="15.0" fill="rgb(236,200,2)" rx="2" ry="2" />
<text  x="1063.94" y="143.5" ></text>
</g>
<g >
<title>std::__detail::_Equal_helper&lt;PageId, (1 samples, 1.56%)</title><rect x="1116.2" y="277" width="18.5" height="15.0" fill="rgb(230,213,4)" rx="2" ry="2" />
<text  x="1119.25" y="287.5" ></text>
</g>
<g >
<title>PageIdHash::operator() (1 samples, 1.56%)</title><rect x="1153.1" y="309" width="18.5" height="15.0" fill="rgb(252,139,21)" rx="2" ry="2" />
<text  x="1156.12" y="319.5" ></text>
</g>
<g >
<title>std::__detail::_Map_base&lt;PageId, (3 samples, 4.69%)</title><rect x="1116.2" y="341" width="55.4" height="15.0" fill="rgb(234,118,34)" rx="2" ry="2" />
<text  x="1119.25" y="351.5" >std::..</text>
</g>
<g >
<title>std::__detail::_Map_base&lt;PageId, (1 samples, 1.56%)</title><rect x="1097.8" y="341" width="18.4" height="15.0" fill="rgb(245,28,16)" rx="2" ry="2" />
<text  x="1100.81" y="351.5" ></text>
</g>
<g >
<title>std::_Hashtable&lt;PageId, (1 samples, 1.56%)</title><rect x="1024.1" y="325" width="18.4" height="15.0" fill="rgb(219,169,3)" rx="2" ry="2" />
<text  x="1027.06" y="335.5" ></text>
</g>
<g >
<title>std::unordered_map&lt;PageId,unsigned (3 samples, 4.69%)</title><rect x="1116.2" y="357" width="55.4" height="15.0" fill="rgb(216,88,36)" rx="2" ry="2" />
<text  x="1119.25" y="367.5" >std::..</text>
</g>
<g >
<title>std::_Destroy&lt;PageId*&gt; (1 samples, 1.56%)</title><rect x="1060.9" y="197" width="18.5" height="15.0" fill="rgb(246,210,11)" rx="2" ry="2" />
<text  x="1063.94" y="207.5" ></text>
</g>
<g >
<title>tcache_get (1 samples, 1.56%)</title><rect x="1005.6" y="245" width="18.5" height="15.0" fill="rgb(242,111,44)" rx="2" ry="2" />
<text  x="1008.62" y="255.5" ></text>
</g>
<g >
<title>std::basic_istream&lt;char,std::char_traits&lt;char&gt; (5 samples, 7.81%)</title><rect x="10.0" y="357" width="92.2" height="15.0" fill="rgb(207,54,20)" rx="2" ry="2" />
<text  x="13.00" y="367.5" >std::basic_..</text>
</g>
<g >
<title>Sha256IdGenerator::generateId(content=&quot;Huge (1 samples, 1.56%)</title><rect x="120.6" y="341" width="18.5" height="15.0" fill="rgb(243,114,6)" rx="2" ry="2" />
<text  x="123.62" y="351.5" ></text>
</g>
<g >
<title>getc@plt() (1 samples, 1.56%)</title><rect x="83.8" y="325" width="18.4" height="15.0" fill="rgb(234,21,27)" rx="2" ry="2" />
<text  x="86.75" y="335.5" ></text>
</g>
<g >
<title>std::__cxx11::basic_string&lt;char, (10 samples, 15.62%)</title><rect x="839.7" y="309" width="184.4" height="15.0" fill="rgb(243,225,26)" rx="2" ry="2" />
<text  x="842.69" y="319.5" >std::__cxx11::basic_stri..</text>
</g>
<g >
<title>std::__cxx11::basic_string&lt;char,std::char_traits&lt;char&gt;, (1 samples, 1.56%)</title><rect x="1005.6" y="293" width="18.5" height="15.0" fill="rgb(211,207,25)" rx="2" ry="2" />
<text  x="1008.62" y="303.5" ></text>
</g>
<g >
<title>std::_Hashtable&lt;PageId, (2 samples, 3.12%)</title><rect x="1116.2" y="325" width="36.9" height="15.0" fill="rgb(237,151,11)" rx="2" ry="2" />
<text  x="1119.25" y="335.5" >std..</text>
</g>
<g >
<title>std::_Hashtable&lt;PageId, (1 samples, 1.56%)</title><rect x="1116.2" y="309" width="18.5" height="15.0" fill="rgb(218,48,11)" rx="2" ry="2" />
<text  x="1119.25" y="319.5" ></text>
</g>
<g >
<title>__GI___libc_read(fd=0, (2 samples, 3.12%)</title><rect x="46.9" y="293" width="36.9" height="15.0" fill="rgb(215,92,8)" rx="2" ry="2" />
<text  x="49.88" y="303.5" >__G..</text>
</g>
<g >
<title>_IO_new_file_underflow(fp=0x7fd86cf85a00 (2 samples, 3.12%)</title><rect x="46.9" y="309" width="36.9" height="15.0" fill="rgb(245,116,18)" rx="2" ry="2" />
<text  x="49.88" y="319.5" >_IO..</text>
</g>
<g >
<title>std::__detail::_Hash_code_base&lt;PageId, (1 samples, 1.56%)</title><rect x="1097.8" y="325" width="18.4" height="15.0" fill="rgb(210,218,50)" rx="2" ry="2" />
<text  x="1100.81" y="335.5" ></text>
</g>
<g >
<title>std::__cxx11::basic_string&lt;char, (9 samples, 14.06%)</title><rect x="839.7" y="277" width="165.9" height="15.0" fill="rgb(227,194,13)" rx="2" ry="2" />
<text  x="842.69" y="287.5" >std::__cxx11::basic_s..</text>
</g>
<g >
<title>std::__cxx11::basic_string&lt;char, (1 samples, 1.56%)</title><rect x="1060.9" y="101" width="18.5" height="15.0" fill="rgb(246,29,43)" rx="2" ry="2" />
<text  x="1063.94" y="111.5" ></text>
</g>
<g >
<title>std::vector&lt;PageId, (1 samples, 1.56%)</title><rect x="1171.6" y="357" width="18.4" height="15.0" fill="rgb(232,213,21)" rx="2" ry="2" />
<text  x="1174.56" y="367.5" ></text>
</g>
<g >
<title>std::__detail::_Hash_code_base&lt;PageId, (1 samples, 1.56%)</title><rect x="1153.1" y="325" width="18.5" height="15.0" fill="rgb(215,203,24)" rx="2" ry="2" />
<text  x="1156.12" y="335.5" ></text>
</g>
<g >
<title>_int_free (1 samples, 1.56%)</title><rect x="1060.9" y="53" width="18.5" height="15.0" fill="rgb(249,222,40)" rx="2" ry="2" />
<text  x="1063.94" y="63.5" ></text>
</g>
<g >
<title>std::__cxx11::basic_string&lt;char, (1 samples, 1.56%)</title><rect x="1060.9" y="117" width="18.5" height="15.0" fill="rgb(230,133,39)" rx="2" ry="2" />
<text  x="1063.94" y="127.5" ></text>
</g>
<g >
<title>std::allocator_traits&lt;std::allocator&lt;std::__detail::_Hash_node&lt;std::pair&lt;PageId (2 samples, 3.12%)</title><rect x="1060.9" y="277" width="36.9" height="15.0" fill="rgb(211,94,50)" rx="2" ry="2" />
<text  x="1063.94" y="287.5" >std..</text>
</g>
<g >
<title>__libc_fork (1 samples, 1.56%)</title><rect x="102.2" y="325" width="18.4" height="15.0" fill="rgb(226,130,43)" rx="2" ry="2" />
<text  x="105.19" y="335.5" ></text>
</g>
<g >
<title>std::unordered_map&lt;PageId,std::vector&lt;PageId, (3 samples, 4.69%)</title><rect x="1060.9" y="357" width="55.3" height="15.0" fill="rgb(244,201,38)" rx="2" ry="2" />
<text  x="1063.94" y="367.5" >std::..</text>
</g>
<g >
<title>__GI__IO_default_uflow(fp=0x7fd86cf85a00 (2 samples, 3.12%)</title><rect x="46.9" y="325" width="36.9" height="15.0" fill="rgb(214,205,6)" rx="2" ry="2" />
<text  x="49.88" y="335.5" >__G..</text>
</g>
<g >
<title>std::_Hash_bytes(voidconst*, (1 samples, 1.56%)</title><rect x="1153.1" y="261" width="18.5" height="15.0" fill="rgb(221,191,1)" rx="2" ry="2" />
<text  x="1156.12" y="271.5" ></text>
</g>
<g >
<title>std::__detail::_Hashtable_alloc&lt;std::allocator&lt;std::__detail::_Hash_node&lt;std::pair&lt;PageId (2 samples, 3.12%)</title><rect x="1060.9" y="293" width="36.9" height="15.0" fill="rgb(249,139,26)" rx="2" ry="2" />
<text  x="1063.94" y="303.5" >std..</text>
</g>
<g >
<title>__gnu_cxx::new_allocator&lt;char&gt;::deallocate(this=0x5648664a39f0, (1 samples, 1.56%)</title><rect x="1060.9" y="69" width="18.5" height="15.0" fill="rgb(223,207,47)" rx="2" ry="2" />
<text  x="1063.94" y="79.5" ></text>
</g>
<g >
<title>free_perturb (1 samples, 1.56%)</title><rect x="1060.9" y="37" width="18.5" height="15.0" fill="rgb(223,3,38)" rx="2" ry="2" />
<text  x="1063.94" y="47.5" ></text>
</g>
<g >
<title>PageIdHash::operator() (1 samples, 1.56%)</title><rect x="1097.8" y="309" width="18.4" height="15.0" fill="rgb(251,162,0)" rx="2" ry="2" />
<text  x="1100.81" y="319.5" ></text>
</g>
<g >
<title>PageId::PageId (10 samples, 15.62%)</title><rect x="839.7" y="357" width="184.4" height="15.0" fill="rgb(242,139,26)" rx="2" ry="2" />
<text  x="842.69" y="367.5" >PageId::PageId</text>
</g>
<g >
<title>all (64 samples, 100%)</title><rect x="10.0" y="421" width="1180.0" height="15.0" fill="rgb(222,93,33)" rx="2" ry="2" />
<text  x="13.00" y="431.5" ></text>
</g>
<g >
<title>__libc_fork (1 samples, 1.56%)</title><rect x="139.1" y="325" width="18.4" height="15.0" fill="rgb(249,25,3)" rx="2" ry="2" />
<text  x="142.06" y="335.5" ></text>
</g>
<g >
<title>std::_Hashtable&lt;PageId,std::pair&lt;PageId (1 samples, 1.56%)</title><rect x="1134.7" y="309" width="18.4" height="15.0" fill="rgb(246,91,7)" rx="2" ry="2" />
<text  x="1137.69" y="319.5" ></text>
</g>
<g >
<title>std::__detail::_Hash_code_base&lt;PageId, (1 samples, 1.56%)</title><rect x="1042.5" y="325" width="18.4" height="15.0" fill="rgb(212,111,43)" rx="2" ry="2" />
<text  x="1045.50" y="335.5" ></text>
</g>
<g >
<title>main(argc=&lt;optimized (64 samples, 100.00%)</title><rect x="10.0" y="405" width="1180.0" height="15.0" fill="rgb(220,133,9)" rx="2" ry="2" />
<text  x="13.00" y="415.5" >main(argc=&lt;optimized</text>
</g>
<g >
<title>std::_Hashtable&lt;PageId, (2 samples, 3.12%)</title><rect x="1060.9" y="325" width="36.9" height="15.0" fill="rgb(245,97,46)" rx="2" ry="2" />
<text  x="1063.94" y="335.5" >std..</text>
</g>
<g >
<title>std::_Hashtable&lt;PageId, (2 samples, 3.12%)</title><rect x="1060.9" y="341" width="36.9" height="15.0" fill="rgb(218,137,23)" rx="2" ry="2" />
<text  x="1063.94" y="351.5" >std..</text>
</g>
<g >
<title>std::allocator_traits&lt;std::allocator&lt;char&gt; (1 samples, 1.56%)</title><rect x="1060.9" y="85" width="18.5" height="15.0" fill="rgb(230,16,9)" rx="2" ry="2" />
<text  x="1063.94" y="95.5" ></text>
</g>
<g >
<title>std::_Destroy&lt;PageId&gt; (1 samples, 1.56%)</title><rect x="1060.9" y="165" width="18.5" height="15.0" fill="rgb(224,210,34)" rx="2" ry="2" />
<text  x="1063.94" y="175.5" ></text>
</g>
<g >
<title>__gnu_cxx::stdio_sync_filebuf&lt;char,std::char_traits&lt;char&gt; (3 samples, 4.69%)</title><rect x="46.9" y="341" width="55.3" height="15.0" fill="rgb(216,226,29)" rx="2" ry="2" />
<text  x="49.88" y="351.5" >__gnu..</text>
</g>
<g >
<title>arch_fork (1 samples, 1.56%)</title><rect x="175.9" y="309" width="18.5" height="15.0" fill="rgb(253,86,43)" rx="2" ry="2" />
<text  x="178.94" y="319.5" ></text>
</g>
<g >
<title>__gnu_cxx::new_allocator&lt;PageId&gt;::allocate(this=&lt;optimized (1 samples, 1.56%)</title><rect x="1171.6" y="277" width="18.4" height="15.0" fill="rgb(240,139,46)" rx="2" ry="2" />
<text  x="1174.56" y="287.5" ></text>
</g>
<g >
<title>std::_Destroy&lt;PageId*, (1 samples, 1.56%)</title><rect x="1060.9" y="213" width="18.5" height="15.0" fill="rgb(208,93,39)" rx="2" ry="2" />
<text  x="1063.94" y="223.5" ></text>
</g>
<g >
<title>std::__detail::_Hashtable_base&lt;PageId, (1 samples, 1.56%)</title><rect x="1116.2" y="293" width="18.5" height="15.0" fill="rgb(221,75,19)" rx="2" ry="2" />
<text  x="1119.25" y="303.5" ></text>
</g>
<g >
<title>arch_fork (1 samples, 1.56%)</title><rect x="120.6" y="309" width="18.5" height="15.0" fill="rgb(244,4,2)" rx="2" ry="2" />
<text  x="123.62" y="319.5" ></text>
</g>
<g >
<title>malloc_consolidate(av=av@entry=0x7fd86cf85c40 (1 samples, 1.56%)</title><rect x="1079.4" y="133" width="18.4" height="15.0" fill="rgb(227,146,33)" rx="2" ry="2" />
<text  x="1082.38" y="143.5" ></text>
</g>
<g >
<title>std::_Hash_impl::hash(__seed=3339675911, (1 samples, 1.56%)</title><rect x="1097.8" y="277" width="18.4" height="15.0" fill="rgb(217,34,20)" rx="2" ry="2" />
<text  x="1100.81" y="287.5" ></text>
</g>
<g >
<title>std::__cxx11::basic_string&lt;char, (10 samples, 15.62%)</title><rect x="839.7" y="341" width="184.4" height="15.0" fill="rgb(242,188,50)" rx="2" ry="2" />
<text  x="842.69" y="351.5" >std::__cxx11::basic_stri..</text>
</g>
<g >
<title>__libc_fork (1 samples, 1.56%)</title><rect x="175.9" y="325" width="18.5" height="15.0" fill="rgb(241,61,50)" rx="2" ry="2" />
<text  x="178.94" y="335.5" ></text>
</g>
<g >
<title>std::_Vector_base&lt;PageId, (1 samples, 1.56%)</title><rect x="1171.6" y="309" width="18.4" height="15.0" fill="rgb(245,67,51)" rx="2" ry="2" />
<text  x="1174.56" y="319.5" ></text>
</g>
<g >
<title>std::allocator_traits&lt;std::allocator&lt;PageId&gt; (1 samples, 1.56%)</title><rect x="1079.4" y="181" width="18.4" height="15.0" fill="rgb(223,15,16)" rx="2" ry="2" />
<text  x="1082.38" y="191.5" ></text>
</g>
<g >
<title>arch_fork (1 samples, 1.56%)</title><rect x="139.1" y="309" width="18.4" height="15.0" fill="rgb(244,65,5)" rx="2" ry="2" />
<text  x="142.06" y="319.5" ></text>
</g>
<g >
<title>__libc_fork (1 samples, 1.56%)</title><rect x="120.6" y="325" width="18.5" height="15.0" fill="rgb(227,49,2)" rx="2" ry="2" />
<text  x="123.62" y="335.5" ></text>
</g>
<g >
<title>std::__cxx11::basic_string&lt;char, (9 samples, 14.06%)</title><rect x="839.7" y="245" width="165.9" height="15.0" fill="rgb(222,219,25)" rx="2" ry="2" />
<text  x="842.69" y="255.5" >std::__cxx11::basic_s..</text>
</g>
<g >
<title>__gnu_cxx::new_allocator&lt;std::__detail::_Hash_node&lt;std::pair&lt;PageId (2 samples, 3.12%)</title><rect x="1060.9" y="261" width="36.9" height="15.0" fill="rgb(234,33,42)" rx="2" ry="2" />
<text  x="1063.94" y="271.5" >__g..</text>
</g>
</g>
</svg>
