<?xml version="1.0" standalone="no"?>
<!DOCTYPE svg PUBLIC "-//W3C//DTD SVG 1.1//EN" "http://www.w3.org/Graphics/SVG/1.1/DTD/svg11.dtd">
<svg version="1.1" width="1200" height="454" onload="init(evt)" viewBox="0 0 1200 454" xmlns="http://www.w3.org/2000/svg" xmlns:xlink="http://www.w3.org/1999/xlink">
<!-- Flame graph stack visualization. See https://github.com/brendangregg/FlameGraph for latest version, and http://www.brendangregg.com/flamegraphs.html for examples. -->
<!-- NOTES:  -->
<defs>
	<linearGradient id="background" y1="0" y2="1" x1="0" x2="0" >
		<stop stop-color="#eeeeee" offset="5%" />
		<stop stop-color="#eeeeb0" offset="95%" />
	</linearGradient>
</defs>
<style type="text/css">
	text { font-family:Verdana; font-size:12px; fill:rgb(0,0,0); }
	#search, #ignorecase { opacity:0.1; cursor:pointer; }
	#search:hover, #search.show, #ignorecase:hover, #ignorecase.show { opacity:1; }
	#subtitle { text-anchor:middle; font-color:rgb(160,160,160); }
	#title { text-anchor:middle; font-size:17px}
	#unzoom { cursor:pointer; }
	#frames > *:hover { stroke:black; stroke-width:0.5; cursor:pointer; }
	.hide { display:none; }
	.parent { opacity:0.5; }
</style>
<script type="text/ecmascript">
<![CDATA[
	"use strict";
	var details, searchbtn, unzoombtn, matchedtxt, svg, searching, currentSearchTerm, ignorecase, ignorecaseBtn;
	function init(evt) {
		details = document.getElementById("details").firstChild;
		searchbtn = document.getElementById("search");
		ignorecaseBtn = document.getElementById("ignorecase");
		unzoombtn = document.getElementById("unzoom");
		matchedtxt = document.getElementById("matched");
		svg = document.getElementsByTagName("svg")[0];
		searching = 0;
		currentSearchTerm = null;
	}

	window.addEventListener("click", function(e) {
		var target = find_group(e.target);
		if (target) {
			if (target.nodeName == "a") {
				if (e.ctrlKey === false) return;
				e.preventDefault();
			}
			if (target.classList.contains("parent")) unzoom();
			zoom(target);
		}
		else if (e.target.id == "unzoom") unzoom();
		else if (e.target.id == "search") search_prompt();
		else if (e.target.id == "ignorecase") toggle_ignorecase();
	}, false)

	// mouse-over for info
	// show
	window.addEventListener("mouseover", function(e) {
		var target = find_group(e.target);
		if (target) details.nodeValue = "Function: " + g_to_text(target);
	}, false)

	// clear
	window.addEventListener("mouseout", function(e) {
		var target = find_group(e.target);
		if (target) details.nodeValue = ' ';
	}, false)

	// ctrl-F for search
	window.addEventListener("keydown",function (e) {
		if (e.keyCode === 114 || (e.ctrlKey && e.keyCode === 70)) {
			e.preventDefault();
			search_prompt();
		}
	}, false)

	// ctrl-I to toggle case-sensitive search
	window.addEventListener("keydown",function (e) {
		if (e.ctrlKey && e.keyCode === 73) {
			e.preventDefault();
			toggle_ignorecase();
		}
	}, false)

	// functions
	function find_child(node, selector) {
		var children = node.querySelectorAll(selector);
		if (children.length) return children[0];
		return;
	}
	function find_group(node) {
		var parent = node.parentElement;
		if (!parent) return;
		if (parent.id == "frames") return node;
		return find_group(parent);
	}
	function orig_save(e, attr, val) {
		if (e.attributes["_orig_" + attr] != undefined) return;
		if (e.attributes[attr] == undefined) return;
		if (val == undefined) val = e.attributes[attr].value;
		e.setAttribute("_orig_" + attr, val);
	}
	function orig_load(e, attr) {
		if (e.attributes["_orig_"+attr] == undefined) return;
		e.attributes[attr].value = e.attributes["_orig_" + attr].value;
		e.removeAttribute("_orig_"+attr);
	}
	function g_to_text(e) {
		var text = find_child(e, "title").firstChild.nodeValue;
		return (text)
	}
	function g_to_func(e) {
		var func = g_to_text(e);
		// if there's any manipulation we want to do to the function
		// name before it's searched, do it here before returning.
		return (func);
	}
	function update_text(e) {
		var r = find_child(e, "rect");
		var t = find_child(e, "text");
		var w = parseFloat(r.attributes.width.value) -3;
		var txt = find_child(e, "title").textContent.replace(/\([^(]*\)$/,"");
		t.attributes.x.value = parseFloat(r.attributes.x.value) + 3;

		// Smaller than this size won't fit anything
		if (w < 2 * 12 * 0.59) {
			t.textContent = "";
			return;
		}

		t.textContent = txt;
		// Fit in full text width
		if (/^ *$/.test(txt) || t.getSubStringLength(0, txt.length) < w)
			return;

		for (var x = txt.length - 2; x > 0; x--) {
			if (t.getSubStringLength(0, x + 2) <= w) {
				t.textContent = txt.substring(0, x) + "..";
				return;
			}
		}
		t.textContent = "";
	}

	// zoom
	function zoom_reset(e) {
		if (e.attributes != undefined) {
			orig_load(e, "x");
			orig_load(e, "width");
		}
		if (e.childNodes == undefined) return;
		for (var i = 0, c = e.childNodes; i < c.length; i++) {
			zoom_reset(c[i]);
		}
	}
	function zoom_child(e, x, ratio) {
		if (e.attributes != undefined) {
			if (e.attributes.x != undefined) {
				orig_save(e, "x");
				e.attributes.x.value = (parseFloat(e.attributes.x.value) - x - 10) * ratio + 10;
				if (e.tagName == "text")
					e.attributes.x.value = find_child(e.parentNode, "rect[x]").attributes.x.value + 3;
			}
			if (e.attributes.width != undefined) {
				orig_save(e, "width");
				e.attributes.width.value = parseFloat(e.attributes.width.value) * ratio;
			}
		}

		if (e.childNodes == undefined) return;
		for (var i = 0, c = e.childNodes; i < c.length; i++) {
			zoom_child(c[i], x - 10, ratio);
		}
	}
	function zoom_parent(e) {
		if (e.attributes) {
			if (e.attributes.x != undefined) {
				orig_save(e, "x");
				e.attributes.x.value = 10;
			}
			if (e.attributes.width != undefined) {
				orig_save(e, "width");
				e.attributes.width.value = parseInt(svg.width.baseVal.value) - (10 * 2);
			}
		}
		if (e.childNodes == undefined) return;
		for (var i = 0, c = e.childNodes; i < c.length; i++) {
			zoom_parent(c[i]);
		}
	}
	function zoom(node) {
		var attr = find_child(node, "rect").attributes;
		var width = parseFloat(attr.width.value);
		var xmin = parseFloat(attr.x.value);
		var xmax = parseFloat(xmin + width);
		var ymin = parseFloat(attr.y.value);
		var ratio = (svg.width.baseVal.value - 2 * 10) / width;

		// XXX: Workaround for JavaScript float issues (fix me)
		var fudge = 0.0001;

		unzoombtn.classList.remove("hide");

		var el = document.getElementById("frames").children;
		for (var i = 0; i < el.length; i++) {
			var e = el[i];
			var a = find_child(e, "rect").attributes;
			var ex = parseFloat(a.x.value);
			var ew = parseFloat(a.width.value);
			var upstack;
			// Is it an ancestor
			if (0 == 0) {
				upstack = parseFloat(a.y.value) > ymin;
			} else {
				upstack = parseFloat(a.y.value) < ymin;
			}
			if (upstack) {
				// Direct ancestor
				if (ex <= xmin && (ex+ew+fudge) >= xmax) {
					e.classList.add("parent");
					zoom_parent(e);
					update_text(e);
				}
				// not in current path
				else
					e.classList.add("hide");
			}
			// Children maybe
			else {
				// no common path
				if (ex < xmin || ex + fudge >= xmax) {
					e.classList.add("hide");
				}
				else {
					zoom_child(e, xmin, ratio);
					update_text(e);
				}
			}
		}
		search();
	}
	function unzoom() {
		unzoombtn.classList.add("hide");
		var el = document.getElementById("frames").children;
		for(var i = 0; i < el.length; i++) {
			el[i].classList.remove("parent");
			el[i].classList.remove("hide");
			zoom_reset(el[i]);
			update_text(el[i]);
		}
		search();
	}

	// search
	function toggle_ignorecase() {
		ignorecase = !ignorecase;
		if (ignorecase) {
			ignorecaseBtn.classList.add("show");
		} else {
			ignorecaseBtn.classList.remove("show");
		}
		reset_search();
		search();
	}
	function reset_search() {
		var el = document.querySelectorAll("#frames rect");
		for (var i = 0; i < el.length; i++) {
			orig_load(el[i], "fill")
		}
	}
	function search_prompt() {
		if (!searching) {
			var term = prompt("Enter a search term (regexp " +
			    "allowed, eg: ^ext4_)"
			    + (ignorecase ? ", ignoring case" : "")
			    + "\nPress Ctrl-i to toggle case sensitivity", "");
			if (term != null) {
				currentSearchTerm = term;
				search();
			}
		} else {
			reset_search();
			searching = 0;
			currentSearchTerm = null;
			searchbtn.classList.remove("show");
			searchbtn.firstChild.nodeValue = "Search"
			matchedtxt.classList.add("hide");
			matchedtxt.firstChild.nodeValue = ""
		}
	}
	function search(term) {
		if (currentSearchTerm === null) return;
		var term = currentSearchTerm;

		var re = new RegExp(term, ignorecase ? 'i' : '');
		var el = document.getElementById("frames").children;
		var matches = new Object();
		var maxwidth = 0;
		for (var i = 0; i < el.length; i++) {
			var e = el[i];
			var func = g_to_func(e);
			var rect = find_child(e, "rect");
			if (func == null || rect == null)
				continue;

			// Save max width. Only works as we have a root frame
			var w = parseFloat(rect.attributes.width.value);
			if (w > maxwidth)
				maxwidth = w;

			if (func.match(re)) {
				// highlight
				var x = parseFloat(rect.attributes.x.value);
				orig_save(rect, "fill");
				rect.attributes.fill.value = "rgb(230,0,230)";

				// remember matches
				if (matches[x] == undefined) {
					matches[x] = w;
				} else {
					if (w > matches[x]) {
						// overwrite with parent
						matches[x] = w;
					}
				}
				searching = 1;
			}
		}
		if (!searching)
			return;

		searchbtn.classList.add("show");
		searchbtn.firstChild.nodeValue = "Reset Search";

		// calculate percent matched, excluding vertical overlap
		var count = 0;
		var lastx = -1;
		var lastw = 0;
		var keys = Array();
		for (k in matches) {
			if (matches.hasOwnProperty(k))
				keys.push(k);
		}
		// sort the matched frames by their x location
		// ascending, then width descending
		keys.sort(function(a, b){
			return a - b;
		});
		// Step through frames saving only the biggest bottom-up frames
		// thanks to the sort order. This relies on the tree property
		// where children are always smaller than their parents.
		var fudge = 0.0001;	// JavaScript floating point
		for (var k in keys) {
			var x = parseFloat(keys[k]);
			var w = matches[keys[k]];
			if (x >= lastx + lastw - fudge) {
				count += w;
				lastx = x;
				lastw = w;
			}
		}
		// display matched percent
		matchedtxt.classList.remove("hide");
		var pct = 100 * count / maxwidth;
		if (pct != 100) pct = pct.toFixed(1)
		matchedtxt.firstChild.nodeValue = "Matched: " + pct + "%";
	}
]]>
</script>
<rect x="0.0" y="0" width="1200.0" height="454.0" fill="url(#background)"  />
<text id="title" x="600.00" y="24" >Flame Graph</text>
<text id="details" x="10.00" y="437" > </text>
<text id="unzoom" x="10.00" y="24" class="hide">Reset Zoom</text>
<text id="search" x="1090.00" y="24" >Search</text>
<text id="ignorecase" x="1174.00" y="24" >ic</text>
<text id="matched" x="1090.00" y="437" > </text>
<g id="frames">
<g >
<title>std::__cxx11::basic_string&lt;char,std::char_traits&lt;char&gt;, (1 samples, 1.56%)</title><rect x="968.8" y="277" width="18.4" height="15.0" fill="rgb(223,180,53)" rx="2" ry="2" />
<text  x="971.75" y="287.5" ></text>
</g>
<g >
<title>__GI___libc_free(mem=0x55d139064530) (1 samples, 1.56%)</title><rect x="1116.2" y="37" width="18.5" height="15.0" fill="rgb(209,58,12)" rx="2" ry="2" />
<text  x="1119.25" y="47.5" ></text>
</g>
<g >
<title>StdinGenerator::generateNetworkOfSize (5 samples, 7.81%)</title><rect x="10.0" y="373" width="92.2" height="15.0" fill="rgb(206,53,18)" rx="2" ry="2" />
<text  x="13.00" y="383.5" >StdinGenera..</text>
</g>
<g >
<title>PageId::PageId (1 samples, 1.56%)</title><rect x="1171.6" y="277" width="18.4" height="15.0" fill="rgb(246,209,48)" rx="2" ry="2" />
<text  x="1174.56" y="287.5" ></text>
</g>
<g >
<title>SingleThreadedPageRankComputer::computeForNetwork (59 samples, 92.19%)</title><rect x="102.2" y="357" width="1087.8" height="15.0" fill="rgb(219,128,13)" rx="2" ry="2" />
<text  x="105.19" y="367.5" >SingleThreadedPageRankComputer::computeForNetwork</text>
</g>
<g >
<title>std::char_traits&lt;char&gt;::copy(__n=64, (7 samples, 10.94%)</title><rect x="839.7" y="213" width="129.1" height="15.0" fill="rgb(219,182,16)" rx="2" ry="2" />
<text  x="842.69" y="223.5" >std::char_traits..</text>
</g>
<g >
<title>std::__cxx11::basic_string&lt;char, (1 samples, 1.56%)</title><rect x="1171.6" y="261" width="18.4" height="15.0" fill="rgb(225,1,7)" rx="2" ry="2" />
<text  x="1174.56" y="271.5" ></text>
</g>
<g >
<title>__libc_fork (2 samples, 3.12%)</title><rect x="139.1" y="309" width="36.8" height="15.0" fill="rgb(238,88,31)" rx="2" ry="2" />
<text  x="142.06" y="319.5" >__l..</text>
</g>
<g >
<title>std::unordered_map&lt;PageId,double, (7 samples, 10.94%)</title><rect x="987.2" y="341" width="129.0" height="15.0" fill="rgb(245,95,24)" rx="2" ry="2" />
<text  x="990.19" y="351.5" >std::unordered_m..</text>
</g>
<g >
<title>std::_Hashtable&lt;PageId, (2 samples, 3.12%)</title><rect x="1116.2" y="309" width="36.9" height="15.0" fill="rgb(214,226,42)" rx="2" ry="2" />
<text  x="1119.25" y="319.5" >std..</text>
</g>
<g >
<title>Sha256IdGenerator::generateId(content=&quot;Old (4 samples, 6.25%)</title><rect x="175.9" y="325" width="73.8" height="15.0" fill="rgb(251,219,49)" rx="2" ry="2" />
<text  x="178.94" y="335.5" >Sha256Id..</text>
</g>
<g >
<title>std::__uninitialized_copy_a&lt;__gnu_cxx::__normal_iterator&lt;PageId (1 samples, 1.56%)</title><rect x="102.2" y="309" width="18.4" height="15.0" fill="rgb(237,84,13)" rx="2" ry="2" />
<text  x="105.19" y="319.5" ></text>
</g>
<g >
<title>std::_Vector_base&lt;PageId, (1 samples, 1.56%)</title><rect x="1134.7" y="197" width="18.4" height="15.0" fill="rgb(240,213,8)" rx="2" ry="2" />
<text  x="1137.69" y="207.5" ></text>
</g>
<g >
<title>std::_Hashtable&lt;PageId, (2 samples, 3.12%)</title><rect x="1116.2" y="325" width="36.9" height="15.0" fill="rgb(224,186,49)" rx="2" ry="2" />
<text  x="1119.25" y="335.5" >std..</text>
</g>
<g >
<title>std::__detail::_Map_base&lt;PageId, (7 samples, 10.94%)</title><rect x="987.2" y="325" width="129.0" height="15.0" fill="rgb(251,70,20)" rx="2" ry="2" />
<text  x="990.19" y="335.5" >std::__detail::_..</text>
</g>
<g >
<title>std::__cxx11::basic_string&lt;char, (7 samples, 10.94%)</title><rect x="839.7" y="229" width="129.1" height="15.0" fill="rgb(254,191,28)" rx="2" ry="2" />
<text  x="842.69" y="239.5" >std::__cxx11::ba..</text>
</g>
<g >
<title>std::__detail::_Hashtable_alloc&lt;std::allocator&lt;std::__detail::_Hash_node&lt;std::pair&lt;PageId (2 samples, 3.12%)</title><rect x="1116.2" y="277" width="36.9" height="15.0" fill="rgb(242,103,36)" rx="2" ry="2" />
<text  x="1119.25" y="287.5" >std..</text>
</g>
<g >
<title>std::allocator_traits&lt;std::allocator&lt;PageId&gt; (1 samples, 1.56%)</title><rect x="1134.7" y="165" width="18.4" height="15.0" fill="rgb(237,131,39)" rx="2" ry="2" />
<text  x="1137.69" y="175.5" ></text>
</g>
<g >
<title>Sha256IdGenerator::generateId(content=..., (30 samples, 46.88%)</title><rect x="268.1" y="325" width="553.1" height="15.0" fill="rgb(224,70,21)" rx="2" ry="2" />
<text  x="271.12" y="335.5" >Sha256IdGenerator::generateId(content=...,</text>
</g>
<g >
<title>std::__cxx11::basic_string&lt;char, (8 samples, 12.50%)</title><rect x="821.2" y="277" width="147.6" height="15.0" fill="rgb(215,111,5)" rx="2" ry="2" />
<text  x="824.25" y="287.5" >std::__cxx11::basi..</text>
</g>
<g >
<title>std::hash&lt;std::__cxx11::basic_string&lt;char, (3 samples, 4.69%)</title><rect x="1060.9" y="277" width="55.3" height="15.0" fill="rgb(221,160,49)" rx="2" ry="2" />
<text  x="1063.94" y="287.5" >std::..</text>
</g>
<g >
<title>std::__detail::_Hashtable_alloc&lt;std::allocator&lt;std::__detail::_Hash_node&lt;std::pair&lt;PageId (2 samples, 3.12%)</title><rect x="1116.2" y="293" width="36.9" height="15.0" fill="rgb(212,53,45)" rx="2" ry="2" />
<text  x="1119.25" y="303.5" >std..</text>
</g>
<g >
<title>__libc_fork (1 samples, 1.56%)</title><rect x="120.6" y="309" width="18.5" height="15.0" fill="rgb(226,44,20)" rx="2" ry="2" />
<text  x="123.62" y="319.5" ></text>
</g>
<g >
<title>Page::generateId(idGenerator=..., (38 samples, 59.38%)</title><rect x="120.6" y="341" width="700.6" height="15.0" fill="rgb(207,30,2)" rx="2" ry="2" />
<text  x="123.62" y="351.5" >Page::generateId(idGenerator=...,</text>
</g>
<g >
<title>std::__cxx11::basic_string&lt;char,std::char_traits&lt;char&gt;, (1 samples, 1.56%)</title><rect x="102.2" y="181" width="18.4" height="15.0" fill="rgb(218,75,2)" rx="2" ry="2" />
<text  x="105.19" y="191.5" ></text>
</g>
<g >
<title>std::_Destroy&lt;PageId*, (1 samples, 1.56%)</title><rect x="1116.2" y="197" width="18.5" height="15.0" fill="rgb(240,113,25)" rx="2" ry="2" />
<text  x="1119.25" y="207.5" ></text>
</g>
<g >
<title>std::_Hashtable&lt;PageId, (4 samples, 6.25%)</title><rect x="987.2" y="309" width="73.7" height="15.0" fill="rgb(207,191,12)" rx="2" ry="2" />
<text  x="990.19" y="319.5" >std::_Ha..</text>
</g>
<g >
<title>PageId::PageId (2 samples, 3.12%)</title><rect x="10.0" y="197" width="36.9" height="15.0" fill="rgb(233,17,3)" rx="2" ry="2" />
<text  x="13.00" y="207.5" >Pag..</text>
</g>
<g >
<title>__gnu_cxx::new_allocator&lt;PageId&gt;::construct&lt;PageId, (1 samples, 1.56%)</title><rect x="1171.6" y="293" width="18.4" height="15.0" fill="rgb(216,228,31)" rx="2" ry="2" />
<text  x="1174.56" y="303.5" ></text>
</g>
<g >
<title>std::__cxx11::basic_string&lt;char, (7 samples, 10.94%)</title><rect x="839.7" y="245" width="129.1" height="15.0" fill="rgb(242,51,24)" rx="2" ry="2" />
<text  x="842.69" y="255.5" >std::__cxx11::ba..</text>
</g>
<g >
<title>std::_Hash_impl::hash(__seed=3339675911, (3 samples, 4.69%)</title><rect x="1060.9" y="261" width="55.3" height="15.0" fill="rgb(244,108,23)" rx="2" ry="2" />
<text  x="1063.94" y="271.5" >std::..</text>
</g>
<g >
<title>__libc_fork (4 samples, 6.25%)</title><rect x="175.9" y="309" width="73.8" height="15.0" fill="rgb(227,101,25)" rx="2" ry="2" />
<text  x="178.94" y="319.5" >__libc_f..</text>
</g>
<g >
<title>std::_Construct&lt;PageId, (1 samples, 1.56%)</title><rect x="102.2" y="261" width="18.4" height="15.0" fill="rgb(214,160,44)" rx="2" ry="2" />
<text  x="105.19" y="271.5" ></text>
</g>
<g >
<title>std::__cxx11::basic_string&lt;char, (2 samples, 3.12%)</title><rect x="10.0" y="181" width="36.9" height="15.0" fill="rgb(231,214,53)" rx="2" ry="2" />
<text  x="13.00" y="191.5" >std..</text>
</g>
<g >
<title>std::__cxx11::basic_string&lt;char, (9 samples, 14.06%)</title><rect x="821.2" y="309" width="166.0" height="15.0" fill="rgb(223,157,19)" rx="2" ry="2" />
<text  x="824.25" y="319.5" >std::__cxx11::basic_s..</text>
</g>
<g >
<title>std::hash&lt;std::__cxx11::basic_string&lt;char, (1 samples, 1.56%)</title><rect x="1153.1" y="277" width="18.5" height="15.0" fill="rgb(218,143,1)" rx="2" ry="2" />
<text  x="1156.12" y="287.5" ></text>
</g>
<g >
<title>__gnu_cxx::new_allocator&lt;PageId&gt;::deallocate(this=0x55d138e65298, (1 samples, 1.56%)</title><rect x="1134.7" y="149" width="18.4" height="15.0" fill="rgb(230,14,19)" rx="2" ry="2" />
<text  x="1137.69" y="159.5" ></text>
</g>
<g >
<title>__libc_wait(stat_loc=stat_loc@entry=0x0) (1 samples, 1.56%)</title><rect x="802.8" y="309" width="18.4" height="15.0" fill="rgb(232,42,42)" rx="2" ry="2" />
<text  x="805.81" y="319.5" ></text>
</g>
<g >
<title>arch_fork (2 samples, 3.12%)</title><rect x="139.1" y="293" width="36.8" height="15.0" fill="rgb(228,186,19)" rx="2" ry="2" />
<text  x="142.06" y="303.5" >arc..</text>
</g>
<g >
<title>std::getline&lt;char,std::char_traits&lt;char&gt;, (3 samples, 4.69%)</title><rect x="46.9" y="357" width="55.3" height="15.0" fill="rgb(223,222,7)" rx="2" ry="2" />
<text  x="49.88" y="367.5" >std::..</text>
</g>
<g >
<title>std::__cxx11::basic_string&lt;char, (1 samples, 1.56%)</title><rect x="102.2" y="197" width="18.4" height="15.0" fill="rgb(237,226,52)" rx="2" ry="2" />
<text  x="105.19" y="207.5" ></text>
</g>
<g >
<title>std::_Construct&lt;PageId, (2 samples, 3.12%)</title><rect x="10.0" y="213" width="36.9" height="15.0" fill="rgb(248,198,28)" rx="2" ry="2" />
<text  x="13.00" y="223.5" >std..</text>
</g>
<g >
<title>PageIdHash::operator() (1 samples, 1.56%)</title><rect x="1153.1" y="293" width="18.5" height="15.0" fill="rgb(208,43,0)" rx="2" ry="2" />
<text  x="1156.12" y="303.5" ></text>
</g>
<g >
<title>arch_fork (4 samples, 6.25%)</title><rect x="175.9" y="293" width="73.8" height="15.0" fill="rgb(231,141,22)" rx="2" ry="2" />
<text  x="178.94" y="303.5" >arch_fork</text>
</g>
<g >
<title>std::_Hashtable&lt;PageId,std::pair&lt;PageId (2 samples, 3.12%)</title><rect x="1005.6" y="293" width="36.9" height="15.0" fill="rgb(232,220,50)" rx="2" ry="2" />
<text  x="1008.62" y="303.5" >std..</text>
</g>
<g >
<title>__memmove_avx_unaligned_erms() (1 samples, 1.56%)</title><rect x="83.8" y="309" width="18.4" height="15.0" fill="rgb(223,111,23)" rx="2" ry="2" />
<text  x="86.75" y="319.5" ></text>
</g>
<g >
<title>__gnu_cxx::stdio_sync_filebuf&lt;char,std::char_traits&lt;char&gt; (1 samples, 1.56%)</title><rect x="65.3" y="325" width="18.5" height="15.0" fill="rgb(249,110,27)" rx="2" ry="2" />
<text  x="68.31" y="335.5" ></text>
</g>
<g >
<title>std::__cxx11::basic_string&lt;char,std::char_traits&lt;char&gt;, (2 samples, 3.12%)</title><rect x="10.0" y="133" width="36.9" height="15.0" fill="rgb(210,139,45)" rx="2" ry="2" />
<text  x="13.00" y="143.5" >std..</text>
</g>
<g >
<title>std::__cxx11::basic_string&lt;char, (1 samples, 1.56%)</title><rect x="1116.2" y="85" width="18.5" height="15.0" fill="rgb(249,153,42)" rx="2" ry="2" />
<text  x="1119.25" y="95.5" ></text>
</g>
<g >
<title>std::vector&lt;PageId, (1 samples, 1.56%)</title><rect x="1171.6" y="325" width="18.4" height="15.0" fill="rgb(211,161,18)" rx="2" ry="2" />
<text  x="1174.56" y="335.5" ></text>
</g>
<g >
<title>std::_Hash_bytes(voidconst*, (1 samples, 1.56%)</title><rect x="1153.1" y="245" width="18.5" height="15.0" fill="rgb(215,48,47)" rx="2" ry="2" />
<text  x="1156.12" y="255.5" ></text>
</g>
<g >
<title>std::uninitialized_copy&lt;__gnu_cxx::__normal_iterator&lt;PageId (2 samples, 3.12%)</title><rect x="10.0" y="245" width="36.9" height="15.0" fill="rgb(210,203,34)" rx="2" ry="2" />
<text  x="13.00" y="255.5" >std..</text>
</g>
<g >
<title>std::__detail::_Hashtable_base&lt;PageId, (1 samples, 1.56%)</title><rect x="987.2" y="277" width="18.4" height="15.0" fill="rgb(243,109,34)" rx="2" ry="2" />
<text  x="990.19" y="287.5" ></text>
</g>
<g >
<title>std::pair&lt;PageId (2 samples, 3.12%)</title><rect x="1116.2" y="229" width="36.9" height="15.0" fill="rgb(240,187,40)" rx="2" ry="2" />
<text  x="1119.25" y="239.5" >std..</text>
</g>
<g >
<title>std::vector&lt;PageId, (2 samples, 3.12%)</title><rect x="10.0" y="277" width="36.9" height="15.0" fill="rgb(212,160,1)" rx="2" ry="2" />
<text  x="13.00" y="287.5" >std..</text>
</g>
<g >
<title>std::__detail::_Hash_code_base&lt;PageId, (3 samples, 4.69%)</title><rect x="1060.9" y="309" width="55.3" height="15.0" fill="rgb(230,90,36)" rx="2" ry="2" />
<text  x="1063.94" y="319.5" >std::..</text>
</g>
<g >
<title>std::__detail::_Map_base&lt;PageId, (1 samples, 1.56%)</title><rect x="1153.1" y="325" width="18.5" height="15.0" fill="rgb(227,189,13)" rx="2" ry="2" />
<text  x="1156.12" y="335.5" ></text>
</g>
<g >
<title>std::__cxx11::basic_string&lt;char, (1 samples, 1.56%)</title><rect x="1116.2" y="117" width="18.5" height="15.0" fill="rgb(236,35,10)" rx="2" ry="2" />
<text  x="1119.25" y="127.5" ></text>
</g>
<g >
<title>Page::Page (1 samples, 1.56%)</title><rect x="102.2" y="341" width="18.4" height="15.0" fill="rgb(234,100,16)" rx="2" ry="2" />
<text  x="105.19" y="351.5" ></text>
</g>
<g >
<title>std::__cxx11::basic_string&lt;char,std::char_traits&lt;char&gt;, (1 samples, 1.56%)</title><rect x="968.8" y="261" width="18.4" height="15.0" fill="rgb(228,127,44)" rx="2" ry="2" />
<text  x="971.75" y="271.5" ></text>
</g>
<g >
<title>__GI___libc_malloc(bytes=65) (2 samples, 3.12%)</title><rect x="10.0" y="101" width="36.9" height="15.0" fill="rgb(233,218,1)" rx="2" ry="2" />
<text  x="13.00" y="111.5" >__G..</text>
</g>
<g >
<title>std::__uninitialized_copy_a&lt;__gnu_cxx::__normal_iterator&lt;PageId (2 samples, 3.12%)</title><rect x="10.0" y="261" width="36.9" height="15.0" fill="rgb(225,158,48)" rx="2" ry="2" />
<text  x="13.00" y="271.5" >std..</text>
</g>
<g >
<title>Page::Page (2 samples, 3.12%)</title><rect x="10.0" y="293" width="36.9" height="15.0" fill="rgb(214,72,12)" rx="2" ry="2" />
<text  x="13.00" y="303.5" >Pag..</text>
</g>
<g >
<title>_int_free(av=0x7fc9a03bbc40 (1 samples, 1.56%)</title><rect x="1134.7" y="133" width="18.4" height="15.0" fill="rgb(214,199,37)" rx="2" ry="2" />
<text  x="1137.69" y="143.5" ></text>
</g>
<g >
<title>std::vector&lt;PageId, (1 samples, 1.56%)</title><rect x="1171.6" y="341" width="18.4" height="15.0" fill="rgb(205,102,8)" rx="2" ry="2" />
<text  x="1174.56" y="351.5" ></text>
</g>
<g >
<title>pageRankComputationWithNetwork(computer=..., (59 samples, 92.19%)</title><rect x="102.2" y="373" width="1087.8" height="15.0" fill="rgb(241,46,43)" rx="2" ry="2" />
<text  x="105.19" y="383.5" >pageRankComputationWithNetwork(computer=...,</text>
</g>
<g >
<title>std::allocator_traits&lt;std::allocator&lt;PageId&gt; (1 samples, 1.56%)</title><rect x="1171.6" y="309" width="18.4" height="15.0" fill="rgb(235,64,23)" rx="2" ry="2" />
<text  x="1174.56" y="319.5" ></text>
</g>
<g >
<title>_int_malloc (2 samples, 3.12%)</title><rect x="10.0" y="85" width="36.9" height="15.0" fill="rgb(229,24,21)" rx="2" ry="2" />
<text  x="13.00" y="95.5" >_in..</text>
</g>
<g >
<title>arch_fork (1 samples, 1.56%)</title><rect x="249.7" y="293" width="18.4" height="15.0" fill="rgb(213,173,45)" rx="2" ry="2" />
<text  x="252.69" y="303.5" ></text>
</g>
<g >
<title>std::__cxx11::basic_string&lt;char, (9 samples, 14.06%)</title><rect x="821.2" y="325" width="166.0" height="15.0" fill="rgb(229,134,42)" rx="2" ry="2" />
<text  x="824.25" y="335.5" >std::__cxx11::basic_s..</text>
</g>
<g >
<title>__memmove_avx_unaligned_erms (7 samples, 10.94%)</title><rect x="839.7" y="197" width="129.1" height="15.0" fill="rgb(237,116,43)" rx="2" ry="2" />
<text  x="842.69" y="207.5" >__memmove_avx_un..</text>
</g>
<g >
<title>std::_Destroy_aux&lt;false&gt;::__destroy&lt;PageId*&gt; (1 samples, 1.56%)</title><rect x="1116.2" y="165" width="18.5" height="15.0" fill="rgb(207,175,33)" rx="2" ry="2" />
<text  x="1119.25" y="175.5" ></text>
</g>
<g >
<title>std::_Destroy&lt;PageId&gt; (1 samples, 1.56%)</title><rect x="1116.2" y="149" width="18.5" height="15.0" fill="rgb(253,0,53)" rx="2" ry="2" />
<text  x="1119.25" y="159.5" ></text>
</g>
<g >
<title>std::_Vector_base&lt;PageId, (1 samples, 1.56%)</title><rect x="1134.7" y="181" width="18.4" height="15.0" fill="rgb(213,148,48)" rx="2" ry="2" />
<text  x="1137.69" y="191.5" ></text>
</g>
<g >
<title>std::__cxx11::basic_string&lt;char, (9 samples, 14.06%)</title><rect x="821.2" y="293" width="166.0" height="15.0" fill="rgb(246,198,48)" rx="2" ry="2" />
<text  x="824.25" y="303.5" >std::__cxx11::basic_s..</text>
</g>
<g >
<title>std::__detail::_Hash_code_base&lt;PageId, (1 samples, 1.56%)</title><rect x="1042.5" y="293" width="18.4" height="15.0" fill="rgb(250,79,6)" rx="2" ry="2" />
<text  x="1045.50" y="303.5" ></text>
</g>
<g >
<title>PageId::~PageId (1 samples, 1.56%)</title><rect x="1116.2" y="133" width="18.5" height="15.0" fill="rgb(211,89,9)" rx="2" ry="2" />
<text  x="1119.25" y="143.5" ></text>
</g>
<g >
<title>std::__cxx11::basic_string&lt;char, (1 samples, 1.56%)</title><rect x="102.2" y="213" width="18.4" height="15.0" fill="rgb(227,7,25)" rx="2" ry="2" />
<text  x="105.19" y="223.5" ></text>
</g>
<g >
<title>std::unordered_map&lt;PageId,unsigned (1 samples, 1.56%)</title><rect x="1153.1" y="341" width="18.5" height="15.0" fill="rgb(233,16,42)" rx="2" ry="2" />
<text  x="1156.12" y="351.5" ></text>
</g>
<g >
<title>__gnu_cxx::new_allocator&lt;Page&gt;::construct&lt;Page, (2 samples, 3.12%)</title><rect x="10.0" y="309" width="36.9" height="15.0" fill="rgb(209,83,21)" rx="2" ry="2" />
<text  x="13.00" y="319.5" >__g..</text>
</g>
<g >
<title>std::__cxx11::basic_string&lt;char, (2 samples, 3.12%)</title><rect x="10.0" y="149" width="36.9" height="15.0" fill="rgb(229,197,14)" rx="2" ry="2" />
<text  x="13.00" y="159.5" >std..</text>
</g>
<g >
<title>__GI__IO_sputbackc(fp=0x7fc9a03bba00 (1 samples, 1.56%)</title><rect x="46.9" y="325" width="18.4" height="15.0" fill="rgb(236,40,8)" rx="2" ry="2" />
<text  x="49.88" y="335.5" ></text>
</g>
<g >
<title>__libc_fork (1 samples, 1.56%)</title><rect x="249.7" y="309" width="18.4" height="15.0" fill="rgb(222,192,6)" rx="2" ry="2" />
<text  x="252.69" y="319.5" ></text>
</g>
<g >
<title>Network::addPage (2 samples, 3.12%)</title><rect x="10.0" y="357" width="36.9" height="15.0" fill="rgb(214,158,37)" rx="2" ry="2" />
<text  x="13.00" y="367.5" >Net..</text>
</g>
<g >
<title>std::allocator_traits&lt;std::allocator&lt;char&gt; (1 samples, 1.56%)</title><rect x="1116.2" y="69" width="18.5" height="15.0" fill="rgb(254,165,54)" rx="2" ry="2" />
<text  x="1119.25" y="79.5" ></text>
</g>
<g >
<title>std::vector&lt;Page, (2 samples, 3.12%)</title><rect x="10.0" y="341" width="36.9" height="15.0" fill="rgb(219,200,10)" rx="2" ry="2" />
<text  x="13.00" y="351.5" >std..</text>
</g>
<g >
<title>std::__detail::_Hash_code_base&lt;PageId, (1 samples, 1.56%)</title><rect x="1153.1" y="309" width="18.5" height="15.0" fill="rgb(235,229,21)" rx="2" ry="2" />
<text  x="1156.12" y="319.5" ></text>
</g>
<g >
<title>std::__cxx11::basic_string&lt;char, (2 samples, 3.12%)</title><rect x="10.0" y="165" width="36.9" height="15.0" fill="rgb(249,226,17)" rx="2" ry="2" />
<text  x="13.00" y="175.5" >std..</text>
</g>
<g >
<title>std::__detail::_Equal_helper&lt;PageId, (1 samples, 1.56%)</title><rect x="987.2" y="261" width="18.4" height="15.0" fill="rgb(234,186,2)" rx="2" ry="2" />
<text  x="990.19" y="271.5" ></text>
</g>
<g >
<title>malloc_consolidate (1 samples, 1.56%)</title><rect x="1134.7" y="117" width="18.4" height="15.0" fill="rgb(242,136,15)" rx="2" ry="2" />
<text  x="1137.69" y="127.5" ></text>
</g>
<g >
<title>std::_Hash_impl::hash(__seed=3339675911, (1 samples, 1.56%)</title><rect x="1153.1" y="261" width="18.5" height="15.0" fill="rgb(253,155,10)" rx="2" ry="2" />
<text  x="1156.12" y="271.5" ></text>
</g>
<g >
<title>std::uninitialized_copy&lt;__gnu_cxx::__normal_iterator&lt;PageId (1 samples, 1.56%)</title><rect x="102.2" y="293" width="18.4" height="15.0" fill="rgb(219,15,15)" rx="2" ry="2" />
<text  x="105.19" y="303.5" ></text>
</g>
<g >
<title>std::allocator_traits&lt;std::allocator&lt;Page&gt; (2 samples, 3.12%)</title><rect x="10.0" y="325" width="36.9" height="15.0" fill="rgb(226,94,28)" rx="2" ry="2" />
<text  x="13.00" y="335.5" >std..</text>
</g>
<g >
<title>std::unordered_map&lt;PageId,std::vector&lt;PageId, (2 samples, 3.12%)</title><rect x="1116.2" y="341" width="36.9" height="15.0" fill="rgb(242,20,51)" rx="2" ry="2" />
<text  x="1119.25" y="351.5" >std..</text>
</g>
<g >
<title>PageId::PageId (1 samples, 1.56%)</title><rect x="102.2" y="245" width="18.4" height="15.0" fill="rgb(253,155,36)" rx="2" ry="2" />
<text  x="105.19" y="255.5" ></text>
</g>
<g >
<title>Sha256IdGenerator::generateId(content=&quot;Big (1 samples, 1.56%)</title><rect x="120.6" y="325" width="18.5" height="15.0" fill="rgb(228,116,9)" rx="2" ry="2" />
<text  x="123.62" y="335.5" ></text>
</g>
<g >
<title>std::__detail::_Mod_range_hashing::operator()(this=0x7ffdfe333680, (1 samples, 1.56%)</title><rect x="1042.5" y="277" width="18.4" height="15.0" fill="rgb(240,114,15)" rx="2" ry="2" />
<text  x="1045.50" y="287.5" ></text>
</g>
<g >
<title>std::vector&lt;PageId, (1 samples, 1.56%)</title><rect x="102.2" y="325" width="18.4" height="15.0" fill="rgb(238,114,36)" rx="2" ry="2" />
<text  x="105.19" y="335.5" ></text>
</g>
<g >
<title>all (64 samples, 100%)</title><rect x="10.0" y="405" width="1180.0" height="15.0" fill="rgb(205,71,22)" rx="2" ry="2" />
<text  x="13.00" y="415.5" ></text>
</g>
<g >
<title>arch_fork (1 samples, 1.56%)</title><rect x="120.6" y="293" width="18.5" height="15.0" fill="rgb(209,46,23)" rx="2" ry="2" />
<text  x="123.62" y="303.5" ></text>
</g>
<g >
<title>PageIdHash::operator() (3 samples, 4.69%)</title><rect x="1060.9" y="293" width="55.3" height="15.0" fill="rgb(219,170,1)" rx="2" ry="2" />
<text  x="1063.94" y="303.5" >PageI..</text>
</g>
<g >
<title>std::allocator_traits&lt;std::allocator&lt;std::__detail::_Hash_node&lt;std::pair&lt;PageId (2 samples, 3.12%)</title><rect x="1116.2" y="261" width="36.9" height="15.0" fill="rgb(234,175,14)" rx="2" ry="2" />
<text  x="1119.25" y="271.5" >std..</text>
</g>
<g >
<title>operatornew(unsigned (1 samples, 1.56%)</title><rect x="102.2" y="165" width="18.4" height="15.0" fill="rgb(220,43,32)" rx="2" ry="2" />
<text  x="105.19" y="175.5" ></text>
</g>
<g >
<title>__libc_read(fd=5, (29 samples, 45.31%)</title><rect x="268.1" y="309" width="534.7" height="15.0" fill="rgb(233,180,14)" rx="2" ry="2" />
<text  x="271.12" y="319.5" >__libc_read(fd=5,</text>
</g>
<g >
<title>std::_Hash_bytes(voidconst*, (3 samples, 4.69%)</title><rect x="1060.9" y="245" width="55.3" height="15.0" fill="rgb(236,101,32)" rx="2" ry="2" />
<text  x="1063.94" y="255.5" >std::..</text>
</g>
<g >
<title>std::__cxx11::basic_string&lt;char,std::char_traits&lt;char&gt;, (1 samples, 1.56%)</title><rect x="83.8" y="325" width="18.4" height="15.0" fill="rgb(215,175,37)" rx="2" ry="2" />
<text  x="86.75" y="335.5" ></text>
</g>
<g >
<title>std::vector&lt;PageId, (2 samples, 3.12%)</title><rect x="1116.2" y="213" width="36.9" height="15.0" fill="rgb(213,149,0)" rx="2" ry="2" />
<text  x="1119.25" y="223.5" >std..</text>
</g>
<g >
<title>__gnu_cxx::new_allocator&lt;char&gt;::deallocate(this=0x55d13b2925a0, (1 samples, 1.56%)</title><rect x="1116.2" y="53" width="18.5" height="15.0" fill="rgb(208,89,50)" rx="2" ry="2" />
<text  x="1119.25" y="63.5" ></text>
</g>
<g >
<title>std::__uninitialized_copy&lt;false&gt;::__uninit_copy&lt;__gnu_cxx::__normal_iterator&lt;PageId (1 samples, 1.56%)</title><rect x="102.2" y="277" width="18.4" height="15.0" fill="rgb(234,199,47)" rx="2" ry="2" />
<text  x="105.19" y="287.5" ></text>
</g>
<g >
<title>Sha256IdGenerator::generateId(content=&quot;Little (2 samples, 3.12%)</title><rect x="139.1" y="325" width="36.8" height="15.0" fill="rgb(254,188,39)" rx="2" ry="2" />
<text  x="142.06" y="335.5" >Sha..</text>
</g>
<g >
<title>std::_Hashtable&lt;PageId, (1 samples, 1.56%)</title><rect x="987.2" y="293" width="18.4" height="15.0" fill="rgb(220,188,26)" rx="2" ry="2" />
<text  x="990.19" y="303.5" ></text>
</g>
<g >
<title>PageId::PageId (9 samples, 14.06%)</title><rect x="821.2" y="341" width="166.0" height="15.0" fill="rgb(233,212,41)" rx="2" ry="2" />
<text  x="824.25" y="351.5" >PageId::PageId</text>
</g>
<g >
<title>operatornew(unsigned (2 samples, 3.12%)</title><rect x="10.0" y="117" width="36.9" height="15.0" fill="rgb(219,132,11)" rx="2" ry="2" />
<text  x="13.00" y="127.5" >ope..</text>
</g>
<g >
<title>__gnu_cxx::new_allocator&lt;std::__detail::_Hash_node&lt;std::pair&lt;PageId (2 samples, 3.12%)</title><rect x="1116.2" y="245" width="36.9" height="15.0" fill="rgb(233,172,36)" rx="2" ry="2" />
<text  x="1119.25" y="255.5" >__g..</text>
</g>
<g >
<title>std::__cxx11::basic_string&lt;char, (1 samples, 1.56%)</title><rect x="1171.6" y="245" width="18.4" height="15.0" fill="rgb(220,177,15)" rx="2" ry="2" />
<text  x="1174.56" y="255.5" ></text>
</g>
<g >
<title>std::__uninitialized_copy&lt;false&gt;::__uninit_copy&lt;__gnu_cxx::__normal_iterator&lt;PageId (2 samples, 3.12%)</title><rect x="10.0" y="229" width="36.9" height="15.0" fill="rgb(229,58,43)" rx="2" ry="2" />
<text  x="13.00" y="239.5" >std..</text>
</g>
<g >
<title>std::__cxx11::basic_string&lt;char, (8 samples, 12.50%)</title><rect x="821.2" y="261" width="147.6" height="15.0" fill="rgb(208,49,46)" rx="2" ry="2" />
<text  x="824.25" y="271.5" >std::__cxx11::basi..</text>
</g>
<g >
<title>std::__cxx11::basic_string&lt;char, (1 samples, 1.56%)</title><rect x="1116.2" y="101" width="18.5" height="15.0" fill="rgb(228,189,6)" rx="2" ry="2" />
<text  x="1119.25" y="111.5" ></text>
</g>
<g >
<title>main(argc=&lt;optimized (64 samples, 100.00%)</title><rect x="10.0" y="389" width="1180.0" height="15.0" fill="rgb(241,188,10)" rx="2" ry="2" />
<text  x="13.00" y="399.5" >main(argc=&lt;optimized</text>
</g>
<g >
<title>__GI___libc_malloc(bytes=65) (1 samples, 1.56%)</title><rect x="102.2" y="149" width="18.4" height="15.0" fill="rgb(237,217,16)" rx="2" ry="2" />
<text  x="105.19" y="159.5" ></text>
</g>
<g >
<title>Sha256IdGenerator::generateId(content=&quot;Young (1 samples, 1.56%)</title><rect x="249.7" y="325" width="18.4" height="15.0" fill="rgb(213,93,51)" rx="2" ry="2" />
<text  x="252.69" y="335.5" ></text>
</g>
<g >
<title>std::__cxx11::basic_string&lt;char, (1 samples, 1.56%)</title><rect x="102.2" y="229" width="18.4" height="15.0" fill="rgb(241,138,23)" rx="2" ry="2" />
<text  x="105.19" y="239.5" ></text>
</g>
<g >
<title>std::basic_istream&lt;char,std::char_traits&lt;char&gt; (3 samples, 4.69%)</title><rect x="46.9" y="341" width="55.3" height="15.0" fill="rgb(229,75,0)" rx="2" ry="2" />
<text  x="49.88" y="351.5" >std::..</text>
</g>
<g >
<title>_int_malloc(av=av@entry=0x7fc9a03bbc40 (1 samples, 1.56%)</title><rect x="102.2" y="133" width="18.4" height="15.0" fill="rgb(244,200,48)" rx="2" ry="2" />
<text  x="105.19" y="143.5" ></text>
</g>
<g >
<title>std::_Destroy&lt;PageId*&gt; (1 samples, 1.56%)</title><rect x="1116.2" y="181" width="18.5" height="15.0" fill="rgb(211,225,33)" rx="2" ry="2" />
<text  x="1119.25" y="191.5" ></text>
</g>
</g>
</svg>
